<?xml version="1.0" encoding="UTF-8" standalone="no"?>
<!DOCTYPE svg PUBLIC "-//W3C//DTD SVG 1.1//EN"
 "http://www.w3.org/Graphics/SVG/1.1/DTD/svg11.dtd">
<!-- Generated by graphviz version 2.47.2 (20210527.1257)
 -->
<!-- Title: snakemake_dag Pages: 1 -->
<svg width="94pt" height="260pt"
 viewBox="0.00 0.00 94.00 260.00" xmlns="http://www.w3.org/2000/svg" xmlns:xlink="http://www.w3.org/1999/xlink">
<g id="graph0" class="graph" transform="scale(1 1) rotate(0) translate(4 256)">
<title>snakemake_dag</title>
<polygon fill="white" stroke="transparent" points="-4,4 -4,-256 90,-256 90,4 -4,4"/>
<!-- 0 -->
<g id="node1" class="node">
<title>0</title>
<path fill="none" stroke="#d85656" stroke-width="2" d="M58,-36C58,-36 28,-36 28,-36 22,-36 16,-30 16,-24 16,-24 16,-12 16,-12 16,-6 22,0 28,0 28,0 58,0 58,0 64,0 70,-6 70,-12 70,-12 70,-24 70,-24 70,-30 64,-36 58,-36"/>
<text text-anchor="middle" x="43" y="-15.5" font-family="sans" font-size="10.00">all</text>
</g>
<!-- 1 -->
<g id="node2" class="node">
<title>1</title>
<path fill="none" stroke="#d6d856" stroke-width="2" d="M66.5,-108C66.5,-108 19.5,-108 19.5,-108 13.5,-108 7.5,-102 7.5,-96 7.5,-96 7.5,-84 7.5,-84 7.5,-78 13.5,-72 19.5,-72 19.5,-72 66.5,-72 66.5,-72 72.5,-72 78.5,-78 78.5,-84 78.5,-84 78.5,-96 78.5,-96 78.5,-102 72.5,-108 66.5,-108"/>
<text text-anchor="middle" x="43" y="-87.5" font-family="sans" font-size="10.00">plot_tracks</text>
</g>
<!-- 1&#45;&gt;0 -->
<g id="edge1" class="edge">
<title>1&#45;&gt;0</title>
<path fill="none" stroke="grey" stroke-width="2" d="M43,-71.7C43,-63.98 43,-54.71 43,-46.11"/>
<polygon fill="grey" stroke="grey" stroke-width="2" points="46.5,-46.1 43,-36.1 39.5,-46.1 46.5,-46.1"/>
</g>
<!-- 2 -->
<g id="node3" class="node">
<title>2</title>
<path fill="none" stroke="#59d856" stroke-width="2" d="M74,-180C74,-180 12,-180 12,-180 6,-180 0,-174 0,-168 0,-168 0,-156 0,-156 0,-150 6,-144 12,-144 12,-144 74,-144 74,-144 80,-144 86,-150 86,-156 86,-156 86,-168 86,-168 86,-174 80,-180 74,-180"/>
<text text-anchor="middle" x="43" y="-159.5" font-family="sans" font-size="10.00">make_bigwigs</text>
</g>
<!-- 2&#45;&gt;1 -->
<g id="edge2" class="edge">
<title>2&#45;&gt;1</title>
<path fill="none" stroke="grey" stroke-width="2" d="M43,-143.7C43,-135.98 43,-126.71 43,-118.11"/>
<polygon fill="grey" stroke="grey" stroke-width="2" points="46.5,-118.1 43,-108.1 39.5,-118.1 46.5,-118.1"/>
</g>
<!-- 3 -->
<g id="node4" class="node">
<title>3</title>
<path fill="none" stroke="#56d8d8" stroke-width="2" d="M71,-252C71,-252 15,-252 15,-252 9,-252 3,-246 3,-240 3,-240 3,-228 3,-228 3,-222 9,-216 15,-216 15,-216 71,-216 71,-216 77,-216 83,-222 83,-228 83,-228 83,-240 83,-240 83,-246 77,-252 71,-252"/>
<text text-anchor="middle" x="43" y="-231.5" font-family="sans" font-size="10.00">merge_bams</text>
</g>
<!-- 3&#45;&gt;2 -->
<g id="edge3" class="edge">
<title>3&#45;&gt;2</title>
<path fill="none" stroke="grey" stroke-width="2" d="M43,-215.7C43,-207.98 43,-198.71 43,-190.11"/>
<polygon fill="grey" stroke="grey" stroke-width="2" points="46.5,-190.1 43,-180.1 39.5,-190.1 46.5,-190.1"/>
</g>
</g>
</svg>
