<?xml version="1.0" encoding="UTF-8" standalone="no"?>
<!DOCTYPE svg PUBLIC "-//W3C//DTD SVG 1.1//EN"
 "http://www.w3.org/Graphics/SVG/1.1/DTD/svg11.dtd">
<!-- Generated by graphviz version 2.40.1 (0)
 -->
<!-- Title: snakemake_dag Pages: 1 -->
<svg width="634pt" height="332pt"
 viewBox="0.00 0.00 633.50 332.00" xmlns="http://www.w3.org/2000/svg" xmlns:xlink="http://www.w3.org/1999/xlink">
<g id="graph0" class="graph" transform="scale(1 1) rotate(0) translate(4 328)">
<title>snakemake_dag</title>
<polygon fill="#ffffff" stroke="transparent" points="-4,4 -4,-328 629.5,-328 629.5,4 -4,4"/>
<!-- 0 -->
<g id="node1" class="node">
<title>0</title>
<path fill="none" stroke="#d8ac56" stroke-width="2" d="M288,-36C288,-36 258,-36 258,-36 252,-36 246,-30 246,-24 246,-24 246,-12 246,-12 246,-6 252,0 258,0 258,0 288,0 288,0 294,0 300,-6 300,-12 300,-12 300,-24 300,-24 300,-30 294,-36 288,-36"/>
<text text-anchor="middle" x="273" y="-15.5" font-family="sans" font-size="10.00" fill="#000000">all</text>
</g>
<!-- 1 -->
<g id="node2" class="node">
<title>1</title>
<path fill="none" stroke="#80d856" stroke-width="2" d="M126.5,-108C126.5,-108 79.5,-108 79.5,-108 73.5,-108 67.5,-102 67.5,-96 67.5,-96 67.5,-84 67.5,-84 67.5,-78 73.5,-72 79.5,-72 79.5,-72 126.5,-72 126.5,-72 132.5,-72 138.5,-78 138.5,-84 138.5,-84 138.5,-96 138.5,-96 138.5,-102 132.5,-108 126.5,-108"/>
<text text-anchor="middle" x="103" y="-87.5" font-family="sans" font-size="10.00" fill="#000000">plot_tracks</text>
</g>
<!-- 1&#45;&gt;0 -->
<g id="edge4" class="edge">
<title>1&#45;&gt;0</title>
<path fill="none" stroke="#c0c0c0" stroke-width="2" d="M138.6376,-74.9064C167.329,-62.7548 207.5034,-45.7397 236.4379,-33.4851"/>
<polygon fill="#c0c0c0" stroke="#c0c0c0" stroke-width="2" points="237.9436,-36.6485 245.7867,-29.5256 235.2136,-30.2027 237.9436,-36.6485"/>
</g>
<!-- 2 -->
<g id="node3" class="node">
<title>2</title>
<path fill="none" stroke="#d6d856" stroke-width="2" d="M145,-180C145,-180 107,-180 107,-180 101,-180 95,-174 95,-168 95,-168 95,-156 95,-156 95,-150 101,-144 107,-144 107,-144 145,-144 145,-144 151,-144 157,-150 157,-156 157,-156 157,-168 157,-168 157,-174 151,-180 145,-180"/>
<text text-anchor="middle" x="126" y="-159.5" font-family="sans" font-size="10.00" fill="#000000">coverage</text>
</g>
<!-- 2&#45;&gt;1 -->
<g id="edge8" class="edge">
<title>2&#45;&gt;1</title>
<path fill="none" stroke="#c0c0c0" stroke-width="2" d="M120.1961,-143.8314C117.7092,-136.0463 114.7469,-126.7729 111.9875,-118.1347"/>
<polygon fill="#c0c0c0" stroke="#c0c0c0" stroke-width="2" points="115.2591,-116.874 108.882,-108.4133 108.591,-119.0041 115.2591,-116.874"/>
</g>
<!-- 5 -->
<g id="node6" class="node">
<title>5</title>
<path fill="none" stroke="#56d8a9" stroke-width="2" d="M207,-108C207,-108 169,-108 169,-108 163,-108 157,-102 157,-96 157,-96 157,-84 157,-84 157,-78 163,-72 169,-72 169,-72 207,-72 207,-72 213,-72 219,-78 219,-84 219,-84 219,-96 219,-96 219,-102 213,-108 207,-108"/>
<text text-anchor="middle" x="188" y="-87.5" font-family="sans" font-size="10.00" fill="#000000">ucsc_hub</text>
</g>
<!-- 2&#45;&gt;5 -->
<g id="edge11" class="edge">
<title>2&#45;&gt;5</title>
<path fill="none" stroke="#c0c0c0" stroke-width="2" d="M141.6452,-143.8314C148.8591,-135.454 157.557,-125.3531 165.4605,-116.1749"/>
<polygon fill="#c0c0c0" stroke="#c0c0c0" stroke-width="2" points="168.2711,-118.2748 172.1441,-108.4133 162.9667,-113.7071 168.2711,-118.2748"/>
</g>
<!-- 3 -->
<g id="node4" class="node">
<title>3</title>
<path fill="none" stroke="#56d882" stroke-width="2" d="M154,-252C154,-252 98,-252 98,-252 92,-252 86,-246 86,-240 86,-240 86,-228 86,-228 86,-222 92,-216 98,-216 98,-216 154,-216 154,-216 160,-216 166,-222 166,-228 166,-228 166,-240 166,-240 166,-246 160,-252 154,-252"/>
<text text-anchor="middle" x="126" y="-231.5" font-family="sans" font-size="10.00" fill="#000000">merge_bams</text>
</g>
<!-- 3&#45;&gt;2 -->
<g id="edge9" class="edge">
<title>3&#45;&gt;2</title>
<path fill="none" stroke="#c0c0c0" stroke-width="2" d="M126,-215.8314C126,-208.131 126,-198.9743 126,-190.4166"/>
<polygon fill="#c0c0c0" stroke="#c0c0c0" stroke-width="2" points="129.5001,-190.4132 126,-180.4133 122.5001,-190.4133 129.5001,-190.4132"/>
</g>
<!-- 6 -->
<g id="node7" class="node">
<title>6</title>
<path fill="none" stroke="#d88556" stroke-width="2" d="M60,-180C60,-180 18,-180 18,-180 12,-180 6,-174 6,-168 6,-168 6,-156 6,-156 6,-150 12,-144 18,-144 18,-144 60,-144 60,-144 66,-144 72,-150 72,-156 72,-156 72,-168 72,-168 72,-174 66,-180 60,-180"/>
<text text-anchor="middle" x="39" y="-159.5" font-family="sans" font-size="10.00" fill="#000000">igv_report</text>
</g>
<!-- 3&#45;&gt;6 -->
<g id="edge12" class="edge">
<title>3&#45;&gt;6</title>
<path fill="none" stroke="#c0c0c0" stroke-width="2" d="M104.0462,-215.8314C93.3305,-206.9632 80.2811,-196.1637 68.691,-186.5718"/>
<polygon fill="#c0c0c0" stroke="#c0c0c0" stroke-width="2" points="70.8822,-183.8422 60.9467,-180.1628 66.4192,-189.2349 70.8822,-183.8422"/>
</g>
<!-- 4 -->
<g id="node5" class="node">
<title>4</title>
<path fill="none" stroke="#59d856" stroke-width="2" d="M154,-324C154,-324 98,-324 98,-324 92,-324 86,-318 86,-312 86,-312 86,-300 86,-300 86,-294 92,-288 98,-288 98,-288 154,-288 154,-288 160,-288 166,-294 166,-300 166,-300 166,-312 166,-312 166,-318 160,-324 154,-324"/>
<text text-anchor="middle" x="126" y="-303.5" font-family="sans" font-size="10.00" fill="#000000">split_sc_bam</text>
</g>
<!-- 4&#45;&gt;3 -->
<g id="edge10" class="edge">
<title>4&#45;&gt;3</title>
<path fill="none" stroke="#c0c0c0" stroke-width="2" d="M126,-287.8314C126,-280.131 126,-270.9743 126,-262.4166"/>
<polygon fill="#c0c0c0" stroke="#c0c0c0" stroke-width="2" points="129.5001,-262.4132 126,-252.4133 122.5001,-262.4133 129.5001,-262.4132"/>
</g>
<!-- 5&#45;&gt;0 -->
<g id="edge5" class="edge">
<title>5&#45;&gt;0</title>
<path fill="none" stroke="#c0c0c0" stroke-width="2" d="M209.4491,-71.8314C219.8178,-63.0485 232.4229,-52.3712 243.6646,-42.8489"/>
<polygon fill="#c0c0c0" stroke="#c0c0c0" stroke-width="2" points="246.1895,-45.297 251.5578,-36.1628 241.6651,-39.9556 246.1895,-45.297"/>
</g>
<!-- 6&#45;&gt;0 -->
<g id="edge2" class="edge">
<title>6&#45;&gt;0</title>
<path fill="none" stroke="#c0c0c0" stroke-width="2" d="M37.586,-143.8964C37.0541,-123.6586 39.5041,-91.2128 58,-72 82.323,-46.7343 180.9848,-30.0738 235.8095,-22.5717"/>
<polygon fill="#c0c0c0" stroke="#c0c0c0" stroke-width="2" points="236.3821,-26.0264 245.8318,-21.2355 235.457,-19.0878 236.3821,-26.0264"/>
</g>
<!-- 7 -->
<g id="node8" class="node">
<title>7</title>
<path fill="none" stroke="#56d8d8" stroke-width="2" d="M56,-252C56,-252 12,-252 12,-252 6,-252 0,-246 0,-240 0,-240 0,-228 0,-228 0,-222 6,-216 12,-216 12,-216 56,-216 56,-216 62,-216 68,-222 68,-228 68,-228 68,-240 68,-240 68,-246 62,-252 56,-252"/>
<text text-anchor="middle" x="34" y="-231.5" font-family="sans" font-size="10.00" fill="#000000">make_bed</text>
</g>
<!-- 7&#45;&gt;6 -->
<g id="edge13" class="edge">
<title>7&#45;&gt;6</title>
<path fill="none" stroke="#c0c0c0" stroke-width="2" d="M35.2617,-215.8314C35.7965,-208.131 36.4323,-198.9743 37.0266,-190.4166"/>
<polygon fill="#c0c0c0" stroke="#c0c0c0" stroke-width="2" points="40.52,-190.6317 37.7213,-180.4133 33.5368,-190.1467 40.52,-190.6317"/>
</g>
<!-- 8 -->
<g id="node9" class="node">
<title>8</title>
<path fill="none" stroke="#56a9d8" stroke-width="2" d="M296.5,-108C296.5,-108 249.5,-108 249.5,-108 243.5,-108 237.5,-102 237.5,-96 237.5,-96 237.5,-84 237.5,-84 237.5,-78 243.5,-72 249.5,-72 249.5,-72 296.5,-72 296.5,-72 302.5,-72 308.5,-78 308.5,-84 308.5,-84 308.5,-96 308.5,-96 308.5,-102 302.5,-108 296.5,-108"/>
<text text-anchor="middle" x="273" y="-87.5" font-family="sans" font-size="10.00" fill="#000000">env_export</text>
</g>
<!-- 8&#45;&gt;0 -->
<g id="edge6" class="edge">
<title>8&#45;&gt;0</title>
<path fill="none" stroke="#c0c0c0" stroke-width="2" d="M273,-71.8314C273,-64.131 273,-54.9743 273,-46.4166"/>
<polygon fill="#c0c0c0" stroke="#c0c0c0" stroke-width="2" points="276.5001,-46.4132 273,-36.4133 269.5001,-46.4133 276.5001,-46.4132"/>
</g>
<!-- 9 -->
<g id="node10" class="node">
<title>9</title>
<path fill="none" stroke="#5682d8" stroke-width="2" d="M413,-108C413,-108 339,-108 339,-108 333,-108 327,-102 327,-96 327,-96 327,-84 327,-84 327,-78 333,-72 339,-72 339,-72 413,-72 413,-72 419,-72 425,-78 425,-84 425,-84 425,-96 425,-96 425,-102 419,-108 413,-108"/>
<text text-anchor="middle" x="376" y="-87.5" font-family="sans" font-size="10.00" fill="#000000">gene_list_export</text>
</g>
<!-- 9&#45;&gt;0 -->
<g id="edge7" class="edge">
<title>9&#45;&gt;0</title>
<path fill="none" stroke="#c0c0c0" stroke-width="2" d="M350.0088,-71.8314C337.0784,-62.7927 321.2778,-51.7476 307.3617,-42.0198"/>
<polygon fill="#c0c0c0" stroke="#c0c0c0" stroke-width="2" points="309.1843,-39.0235 298.9829,-36.1628 305.1737,-44.7608 309.1843,-39.0235"/>
</g>
<!-- 10 -->
<g id="node11" class="node">
<title>10</title>
<path fill="none" stroke="#afd856" stroke-width="2" d="M514.5,-108C514.5,-108 455.5,-108 455.5,-108 449.5,-108 443.5,-102 443.5,-96 443.5,-96 443.5,-84 443.5,-84 443.5,-78 449.5,-72 455.5,-72 455.5,-72 514.5,-72 514.5,-72 520.5,-72 526.5,-78 526.5,-84 526.5,-84 526.5,-96 526.5,-96 526.5,-102 520.5,-108 514.5,-108"/>
<text text-anchor="middle" x="485" y="-87.5" font-family="sans" font-size="10.00" fill="#000000">config_export</text>
</g>
<!-- 10&#45;&gt;0 -->
<g id="edge3" class="edge">
<title>10&#45;&gt;0</title>
<path fill="none" stroke="#c0c0c0" stroke-width="2" d="M443.27,-75.2119C440.1351,-74.1193 437.0187,-73.0389 434,-72 391.4309,-57.3499 342.3613,-40.9636 309.6927,-30.125"/>
<polygon fill="#c0c0c0" stroke="#c0c0c0" stroke-width="2" points="310.6995,-26.7715 300.1061,-26.9475 308.4971,-33.4161 310.6995,-26.7715"/>
</g>
<!-- 11 -->
<g id="node12" class="node">
<title>11</title>
<path fill="none" stroke="#d85656" stroke-width="2" d="M613.5,-108C613.5,-108 556.5,-108 556.5,-108 550.5,-108 544.5,-102 544.5,-96 544.5,-96 544.5,-84 544.5,-84 544.5,-78 550.5,-72 556.5,-72 556.5,-72 613.5,-72 613.5,-72 619.5,-72 625.5,-78 625.5,-84 625.5,-84 625.5,-96 625.5,-96 625.5,-102 619.5,-108 613.5,-108"/>
<text text-anchor="middle" x="585" y="-87.5" font-family="sans" font-size="10.00" fill="#000000">annot_export</text>
</g>
<!-- 11&#45;&gt;0 -->
<g id="edge1" class="edge">
<title>11&#45;&gt;0</title>
<path fill="none" stroke="#c0c0c0" stroke-width="2" d="M544.2436,-74.5101C541.4684,-73.6158 538.7021,-72.7691 536,-72 456.729,-49.4389 361.4952,-32.2822 310.1666,-23.8273"/>
<polygon fill="#c0c0c0" stroke="#c0c0c0" stroke-width="2" points="310.6353,-20.3576 300.2027,-22.2049 309.5102,-27.2666 310.6353,-20.3576"/>
</g>
</g>
</svg>
