<?xml version="1.0" encoding="UTF-8" standalone="no"?>
<!DOCTYPE svg PUBLIC "-//W3C//DTD SVG 1.1//EN"
 "http://www.w3.org/Graphics/SVG/1.1/DTD/svg11.dtd">
<!-- Generated by graphviz version 2.40.1 (0)
 -->
<!-- Title: snakemake_dag Pages: 1 -->
<svg width="493pt" height="260pt"
 viewBox="0.00 0.00 493.00 260.00" xmlns="http://www.w3.org/2000/svg" xmlns:xlink="http://www.w3.org/1999/xlink">
<g id="graph0" class="graph" transform="scale(1 1) rotate(0) translate(4 256)">
<title>snakemake_dag</title>
<polygon fill="#ffffff" stroke="transparent" points="-4,4 -4,-256 489,-256 489,4 -4,4"/>
<!-- 0 -->
<g id="node1" class="node">
<title>0</title>
<path fill="none" stroke="#56d8d8" stroke-width="2" d="M250.5,-36C250.5,-36 220.5,-36 220.5,-36 214.5,-36 208.5,-30 208.5,-24 208.5,-24 208.5,-12 208.5,-12 208.5,-6 214.5,0 220.5,0 220.5,0 250.5,0 250.5,0 256.5,0 262.5,-6 262.5,-12 262.5,-12 262.5,-24 262.5,-24 262.5,-30 256.5,-36 250.5,-36"/>
<text text-anchor="middle" x="235.5" y="-15.5" font-family="sans" font-size="10.00" fill="#000000">all</text>
</g>
<!-- 1 -->
<g id="node2" class="node">
<title>1</title>
<path fill="none" stroke="#d85656" stroke-width="2" d="M67,-108C67,-108 20,-108 20,-108 14,-108 8,-102 8,-96 8,-96 8,-84 8,-84 8,-78 14,-72 20,-72 20,-72 67,-72 67,-72 73,-72 79,-78 79,-84 79,-84 79,-96 79,-96 79,-102 73,-108 67,-108"/>
<text text-anchor="middle" x="43.5" y="-87.5" font-family="sans" font-size="10.00" fill="#000000">plot_tracks</text>
</g>
<!-- 1&#45;&gt;0 -->
<g id="edge1" class="edge">
<title>1&#45;&gt;0</title>
<path fill="none" stroke="#c0c0c0" stroke-width="2" d="M79.4733,-75.1521C82.1847,-74.0733 84.8828,-73.0124 87.5,-72 125.2011,-57.4167 168.6988,-41.6739 198.7346,-30.9709"/>
<polygon fill="#c0c0c0" stroke="#c0c0c0" stroke-width="2" points="200.1267,-34.1907 208.3768,-27.5433 197.7821,-27.595 200.1267,-34.1907"/>
</g>
<!-- 2 -->
<g id="node3" class="node">
<title>2</title>
<path fill="none" stroke="#56d89a" stroke-width="2" d="M75,-180C75,-180 12,-180 12,-180 6,-180 0,-174 0,-168 0,-168 0,-156 0,-156 0,-150 6,-144 12,-144 12,-144 75,-144 75,-144 81,-144 87,-150 87,-156 87,-156 87,-168 87,-168 87,-174 81,-180 75,-180"/>
<text text-anchor="middle" x="43.5" y="-159.5" font-family="sans" font-size="10.00" fill="#000000">make_bigwigs</text>
</g>
<!-- 2&#45;&gt;1 -->
<g id="edge6" class="edge">
<title>2&#45;&gt;1</title>
<path fill="none" stroke="#c0c0c0" stroke-width="2" d="M43.5,-143.8314C43.5,-136.131 43.5,-126.9743 43.5,-118.4166"/>
<polygon fill="#c0c0c0" stroke="#c0c0c0" stroke-width="2" points="47.0001,-118.4132 43.5,-108.4133 40.0001,-118.4133 47.0001,-118.4132"/>
</g>
<!-- 3 -->
<g id="node4" class="node">
<title>3</title>
<path fill="none" stroke="#569ad8" stroke-width="2" d="M71.5,-252C71.5,-252 15.5,-252 15.5,-252 9.5,-252 3.5,-246 3.5,-240 3.5,-240 3.5,-228 3.5,-228 3.5,-222 9.5,-216 15.5,-216 15.5,-216 71.5,-216 71.5,-216 77.5,-216 83.5,-222 83.5,-228 83.5,-228 83.5,-240 83.5,-240 83.5,-246 77.5,-252 71.5,-252"/>
<text text-anchor="middle" x="43.5" y="-231.5" font-family="sans" font-size="10.00" fill="#000000">merge_bams</text>
</g>
<!-- 3&#45;&gt;2 -->
<g id="edge7" class="edge">
<title>3&#45;&gt;2</title>
<path fill="none" stroke="#c0c0c0" stroke-width="2" d="M43.5,-215.8314C43.5,-208.131 43.5,-198.9743 43.5,-190.4166"/>
<polygon fill="#c0c0c0" stroke="#c0c0c0" stroke-width="2" points="47.0001,-190.4132 43.5,-180.4133 40.0001,-190.4133 47.0001,-190.4132"/>
</g>
<!-- 4 -->
<g id="node5" class="node">
<title>4</title>
<path fill="none" stroke="#d89556" stroke-width="2" d="M156,-108C156,-108 109,-108 109,-108 103,-108 97,-102 97,-96 97,-96 97,-84 97,-84 97,-78 103,-72 109,-72 109,-72 156,-72 156,-72 162,-72 168,-78 168,-84 168,-84 168,-96 168,-96 168,-102 162,-108 156,-108"/>
<text text-anchor="middle" x="132.5" y="-87.5" font-family="sans" font-size="10.00" fill="#000000">env_export</text>
</g>
<!-- 4&#45;&gt;0 -->
<g id="edge2" class="edge">
<title>4&#45;&gt;0</title>
<path fill="none" stroke="#c0c0c0" stroke-width="2" d="M158.4912,-71.8314C171.4216,-62.7927 187.2222,-51.7476 201.1383,-42.0198"/>
<polygon fill="#c0c0c0" stroke="#c0c0c0" stroke-width="2" points="203.3263,-44.7608 209.5171,-36.1628 199.3157,-39.0235 203.3263,-44.7608"/>
</g>
<!-- 5 -->
<g id="node6" class="node">
<title>5</title>
<path fill="none" stroke="#d6d856" stroke-width="2" d="M272.5,-108C272.5,-108 198.5,-108 198.5,-108 192.5,-108 186.5,-102 186.5,-96 186.5,-96 186.5,-84 186.5,-84 186.5,-78 192.5,-72 198.5,-72 198.5,-72 272.5,-72 272.5,-72 278.5,-72 284.5,-78 284.5,-84 284.5,-84 284.5,-96 284.5,-96 284.5,-102 278.5,-108 272.5,-108"/>
<text text-anchor="middle" x="235.5" y="-87.5" font-family="sans" font-size="10.00" fill="#000000">gene_list_export</text>
</g>
<!-- 5&#45;&gt;0 -->
<g id="edge3" class="edge">
<title>5&#45;&gt;0</title>
<path fill="none" stroke="#c0c0c0" stroke-width="2" d="M235.5,-71.8314C235.5,-64.131 235.5,-54.9743 235.5,-46.4166"/>
<polygon fill="#c0c0c0" stroke="#c0c0c0" stroke-width="2" points="239.0001,-46.4132 235.5,-36.4133 232.0001,-46.4133 239.0001,-46.4132"/>
</g>
<!-- 6 -->
<g id="node7" class="node">
<title>6</title>
<path fill="none" stroke="#59d856" stroke-width="2" d="M374,-108C374,-108 315,-108 315,-108 309,-108 303,-102 303,-96 303,-96 303,-84 303,-84 303,-78 309,-72 315,-72 315,-72 374,-72 374,-72 380,-72 386,-78 386,-84 386,-84 386,-96 386,-96 386,-102 380,-108 374,-108"/>
<text text-anchor="middle" x="344.5" y="-87.5" font-family="sans" font-size="10.00" fill="#000000">config_export</text>
</g>
<!-- 6&#45;&gt;0 -->
<g id="edge5" class="edge">
<title>6&#45;&gt;0</title>
<path fill="none" stroke="#c0c0c0" stroke-width="2" d="M316.9947,-71.8314C303.0766,-62.6377 286.0161,-51.3684 271.1079,-41.5208"/>
<polygon fill="#c0c0c0" stroke="#c0c0c0" stroke-width="2" points="272.892,-38.5047 262.6189,-35.9134 269.0338,-44.3455 272.892,-38.5047"/>
</g>
<!-- 7 -->
<g id="node8" class="node">
<title>7</title>
<path fill="none" stroke="#97d856" stroke-width="2" d="M473,-108C473,-108 416,-108 416,-108 410,-108 404,-102 404,-96 404,-96 404,-84 404,-84 404,-78 410,-72 416,-72 416,-72 473,-72 473,-72 479,-72 485,-78 485,-84 485,-84 485,-96 485,-96 485,-102 479,-108 473,-108"/>
<text text-anchor="middle" x="444.5" y="-87.5" font-family="sans" font-size="10.00" fill="#000000">annot_export</text>
</g>
<!-- 7&#45;&gt;0 -->
<g id="edge4" class="edge">
<title>7&#45;&gt;0</title>
<path fill="none" stroke="#c0c0c0" stroke-width="2" d="M403.888,-74.9871C401.0523,-73.9679 398.2353,-72.9638 395.5,-72 353.4015,-57.1664 304.7853,-40.8769 272.294,-30.1099"/>
<polygon fill="#c0c0c0" stroke="#c0c0c0" stroke-width="2" points="273.3466,-26.7716 262.7533,-26.9534 271.1478,-33.4173 273.3466,-26.7716"/>
</g>
</g>
</svg>
